<?xml version="1.0" encoding="UTF-8"?>
<svg xmlns="http://www.w3.org/2000/svg" xmlns:xlink="http://www.w3.org/1999/xlink" width="32px" height="33px" viewBox="0 0 32 33" version="1.1">
<g id="surface1">
<path style=" stroke:none;fill-rule:nonzero;fill:rgb(100%,100%,100%);fill-opacity:1;" d="M 18.914062 33.035156 C 12.609375 33.035156 6.34375 33.035156 0.0742188 33.035156 C 0.0742188 22.0625 0.0742188 11.09375 0.0742188 0.117188 C 10.730469 0.117188 21.390625 0.117188 32.058594 0.117188 C 32.058594 11.085938 32.058594 22.058594 32.058594 33.035156 C 27.695312 33.035156 23.320312 33.035156 18.914062 33.035156 M 11.121094 5.785156 C 11.046875 5.820312 10.972656 5.859375 10.898438 5.894531 C 5.433594 8.46875 2.550781 14.382812 3.902344 20.246094 C 5.402344 26.757812 11.792969 30.960938 18.445312 29.820312 C 23.921875 28.882812 28.398438 24.335938 28.886719 18.378906 C 29.105469 15.753906 28.535156 13.28125 27.207031 10.988281 C 24.003906 5.457031 16.980469 3.167969 11.121094 5.785156 Z M 11.121094 5.785156 "/>
<path style=" stroke:none;fill-rule:nonzero;fill:rgb(33.72549%,77.254902%,78.823529%);fill-opacity:1;" d="M 11.148438 5.777344 C 16.980469 3.167969 24.003906 5.457031 27.207031 10.988281 C 28.535156 13.28125 29.105469 15.753906 28.886719 18.378906 C 28.398438 24.335938 23.921875 28.882812 18.445312 29.820312 C 11.792969 30.960938 5.402344 26.757812 3.902344 20.246094 C 2.550781 14.382812 5.433594 8.46875 10.898438 5.894531 C 10.972656 5.859375 11.046875 5.820312 11.148438 5.777344 M 6.910156 24.027344 C 7.609375 24.777344 8.238281 25.609375 9.023438 26.257812 C 11.074219 27.953125 13.464844 28.789062 16.140625 28.824219 C 18.113281 28.847656 19.984375 28.421875 21.691406 27.464844 C 24.914062 25.660156 26.898438 22.929688 27.574219 19.285156 C 27.839844 17.855469 27.820312 16.417969 27.507812 15.011719 C 26.871094 12.152344 25.382812 9.804688 22.992188 8.082031 C 20.136719 6.03125 16.960938 5.421875 13.546875 6.226562 C 10.445312 6.953125 8.078125 8.742188 6.421875 11.449219 C 5.171875 13.496094 4.640625 15.722656 4.796875 18.121094 C 4.9375 20.28125 5.65625 22.214844 6.910156 24.027344 Z M 6.910156 24.027344 "/>
<path style=" stroke:none;fill-rule:nonzero;fill:rgb(3.529412%,23.529412%,40.392157%);fill-opacity:1;" d="M 6.890625 24.003906 C 5.65625 22.214844 4.9375 20.28125 4.796875 18.121094 C 4.640625 15.722656 5.171875 13.496094 6.421875 11.449219 C 8.078125 8.742188 10.445312 6.953125 13.546875 6.226562 C 16.960938 5.421875 20.136719 6.03125 22.992188 8.082031 C 25.382812 9.804688 26.871094 12.152344 27.507812 15.011719 C 27.820312 16.417969 27.839844 17.855469 27.574219 19.285156 C 26.898438 22.929688 24.914062 25.660156 21.691406 27.464844 C 19.984375 28.421875 18.113281 28.847656 16.140625 28.824219 C 13.464844 28.789062 11.074219 27.953125 9.023438 26.257812 C 8.238281 25.609375 7.609375 24.777344 6.890625 24.003906 M 26.28125 14.183594 C 26.21875 14.011719 26.160156 13.84375 26.09375 13.675781 C 25.410156 11.914062 24.367188 10.394531 22.878906 9.222656 C 20.457031 7.3125 17.707031 6.507812 14.636719 7 C 11.578125 7.488281 9.171875 9.039062 7.464844 11.621094 C 5.863281 14.054688 5.394531 16.726562 5.980469 19.574219 C 6.273438 20.992188 6.863281 22.289062 7.734375 23.511719 C 7.777344 23.367188 7.808594 23.269531 7.832031 23.171875 C 8.097656 22.175781 8.445312 21.210938 9.019531 20.34375 C 9.585938 19.484375 10.484375 19.234375 11.410156 18.96875 C 11.398438 19.441406 11.109375 19.675781 10.820312 19.921875 C 10.578125 20.132812 10.316406 20.335938 10.136719 20.597656 C 9.546875 21.46875 9.394531 22.460938 9.417969 23.492188 C 9.433594 24.210938 10.058594 24.683594 10.761719 24.484375 C 10.851562 24.457031 10.972656 24.324219 10.96875 24.246094 C 10.964844 24.164062 10.839844 24.046875 10.746094 24.019531 C 10.597656 23.984375 10.433594 23.996094 10.28125 24.015625 C 9.898438 24.058594 9.820312 23.980469 9.765625 23.585938 C 9.609375 22.386719 10.125 21.4375 10.898438 20.589844 C 11.265625 20.191406 11.792969 20.191406 12.160156 20.597656 C 12.390625 20.851562 12.554688 21.164062 12.769531 21.433594 C 13.316406 22.125 13.34375 22.917969 13.246094 23.738281 C 13.214844 23.972656 13.082031 24.058594 12.84375 24.023438 C 12.667969 24 12.480469 23.992188 12.308594 24.023438 C 12.226562 24.035156 12.125 24.144531 12.101562 24.230469 C 12.085938 24.289062 12.160156 24.414062 12.226562 24.457031 C 12.617188 24.695312 13.488281 24.324219 13.582031 23.878906 C 13.796875 22.878906 13.488281 21.9375 13.191406 21.015625 C 13.03125 20.527344 12.613281 20.183594 12.183594 19.875 C 11.988281 19.730469 11.785156 19.480469 11.75 19.253906 C 11.699219 18.929688 11.925781 18.691406 12.261719 18.570312 C 12.550781 18.464844 12.832031 18.316406 13.09375 18.15625 C 13.75 17.742188 13.910156 16.992188 13.535156 16.320312 C 13.347656 15.988281 13.21875 15.628906 13.0625 15.28125 C 13.03125 15.207031 13 15.128906 12.964844 15.054688 C 12.835938 14.789062 12.65625 14.539062 12.59375 14.265625 C 12.476562 13.707031 12.433594 13.136719 12.34375 12.574219 C 12.234375 11.894531 12.304688 11.246094 12.570312 10.609375 C 12.984375 9.621094 13.582031 8.777344 14.640625 8.460938 C 15.871094 8.089844 17.074219 8.128906 18.3125 8.667969 C 19.546875 9.199219 20.339844 11.128906 20.164062 12.191406 C 20.109375 12.53125 19.960938 12.886719 20.015625 13.207031 C 20.132812 13.9375 19.871094 14.546875 19.5625 15.152344 C 19.308594 15.652344 19.011719 16.128906 18.746094 16.625 C 18.699219 16.710938 18.691406 16.828125 18.691406 16.929688 C 18.6875 17.75 19.1875 18.203125 19.890625 18.4375 C 20.582031 18.671875 20.824219 19.207031 20.988281 19.828125 C 21.039062 20.015625 21.019531 20.144531 20.785156 20.234375 C 20.40625 20.382812 20.21875 20.789062 20.289062 21.171875 C 20.359375 21.558594 20.722656 21.882812 21.117188 21.90625 C 21.445312 21.921875 21.835938 21.660156 21.960938 21.339844 C 22.113281 20.949219 21.984375 20.539062 21.636719 20.292969 C 21.5625 20.238281 21.445312 20.191406 21.421875 20.117188 C 21.296875 19.730469 21.195312 19.332031 21.085938 18.929688 C 23.246094 19.660156 24.59375 21.054688 24.820312 23.457031 C 25.972656 21.75 26.628906 19.980469 26.746094 18.023438 C 26.824219 16.734375 26.652344 15.476562 26.28125 14.183594 Z M 26.28125 14.183594 "/>
<path style=" stroke:none;fill-rule:nonzero;fill:rgb(32.941176%,77.254902%,78.431373%);fill-opacity:1;" d="M 26.292969 14.210938 C 26.652344 15.476562 26.824219 16.734375 26.746094 18.023438 C 26.628906 19.980469 25.972656 21.75 24.820312 23.457031 C 24.59375 21.054688 23.246094 19.660156 21.085938 18.929688 C 21.195312 19.332031 21.296875 19.730469 21.421875 20.117188 C 21.445312 20.191406 21.5625 20.238281 21.636719 20.292969 C 21.984375 20.539062 22.113281 20.949219 21.960938 21.339844 C 21.835938 21.660156 21.445312 21.921875 21.117188 21.90625 C 20.722656 21.882812 20.359375 21.558594 20.289062 21.171875 C 20.21875 20.789062 20.40625 20.382812 20.785156 20.234375 C 21.019531 20.144531 21.039062 20.015625 20.988281 19.828125 C 20.824219 19.207031 20.582031 18.671875 19.890625 18.4375 C 19.1875 18.203125 18.6875 17.75 18.691406 16.929688 C 18.691406 16.828125 18.699219 16.710938 18.746094 16.625 C 19.011719 16.128906 19.308594 15.652344 19.5625 15.152344 C 19.871094 14.546875 20.132812 13.9375 20.015625 13.207031 C 19.960938 12.886719 20.109375 12.53125 20.164062 12.191406 C 20.339844 11.128906 19.546875 9.199219 18.3125 8.667969 C 17.074219 8.128906 15.871094 8.089844 14.640625 8.460938 C 13.582031 8.777344 12.984375 9.621094 12.570312 10.609375 C 12.304688 11.246094 12.234375 11.894531 12.34375 12.574219 C 12.433594 13.136719 12.476562 13.707031 12.59375 14.265625 C 12.65625 14.539062 12.835938 14.789062 12.964844 15.054688 C 13 15.128906 13.03125 15.207031 13.0625 15.28125 C 13.21875 15.628906 13.347656 15.988281 13.535156 16.320312 C 13.910156 16.992188 13.75 17.742188 13.09375 18.15625 C 12.832031 18.316406 12.550781 18.464844 12.261719 18.570312 C 11.925781 18.691406 11.699219 18.929688 11.75 19.253906 C 11.785156 19.480469 11.988281 19.730469 12.183594 19.875 C 12.613281 20.183594 13.03125 20.527344 13.191406 21.015625 C 13.488281 21.9375 13.796875 22.878906 13.582031 23.878906 C 13.488281 24.324219 12.617188 24.695312 12.226562 24.457031 C 12.160156 24.414062 12.085938 24.289062 12.101562 24.230469 C 12.125 24.144531 12.226562 24.035156 12.308594 24.023438 C 12.480469 23.992188 12.667969 24 12.84375 24.023438 C 13.082031 24.058594 13.214844 23.972656 13.246094 23.738281 C 13.34375 22.917969 13.316406 22.125 12.769531 21.433594 C 12.554688 21.164062 12.390625 20.851562 12.160156 20.597656 C 11.792969 20.191406 11.265625 20.191406 10.898438 20.589844 C 10.125 21.4375 9.609375 22.386719 9.765625 23.585938 C 9.820312 23.980469 9.898438 24.058594 10.28125 24.015625 C 10.433594 23.996094 10.597656 23.984375 10.746094 24.019531 C 10.839844 24.046875 10.964844 24.164062 10.96875 24.246094 C 10.972656 24.324219 10.851562 24.457031 10.761719 24.484375 C 10.058594 24.683594 9.433594 24.210938 9.417969 23.492188 C 9.394531 22.460938 9.546875 21.46875 10.136719 20.597656 C 10.316406 20.335938 10.578125 20.132812 10.820312 19.921875 C 11.109375 19.675781 11.398438 19.441406 11.410156 18.96875 C 10.484375 19.234375 9.585938 19.484375 9.019531 20.34375 C 8.445312 21.210938 8.097656 22.175781 7.832031 23.171875 C 7.808594 23.269531 7.777344 23.367188 7.734375 23.511719 C 6.863281 22.289062 6.273438 20.992188 5.980469 19.574219 C 5.394531 16.726562 5.863281 14.054688 7.464844 11.621094 C 9.171875 9.039062 11.578125 7.488281 14.636719 7 C 17.707031 6.507812 20.457031 7.3125 22.878906 9.222656 C 24.367188 10.394531 25.410156 11.914062 26.09375 13.675781 C 26.160156 13.84375 26.21875 14.011719 26.292969 14.210938 M 21.417969 20.914062 C 21.316406 20.714844 21.167969 20.5625 20.949219 20.703125 C 20.84375 20.769531 20.726562 20.96875 20.757812 21.0625 C 20.796875 21.179688 20.972656 21.3125 21.101562 21.328125 C 21.328125 21.359375 21.433594 21.191406 21.417969 20.914062 Z M 21.417969 20.914062 "/>
<path style=" stroke:none;fill-rule:nonzero;fill:rgb(5.098039%,26.666667%,42.352941%);fill-opacity:1;" d="M 21.421875 20.9375 C 21.433594 21.191406 21.328125 21.359375 21.101562 21.328125 C 20.972656 21.3125 20.796875 21.179688 20.757812 21.0625 C 20.726562 20.96875 20.84375 20.769531 20.949219 20.703125 C 21.167969 20.5625 21.316406 20.714844 21.421875 20.9375 Z M 21.421875 20.9375 "/>
</g>
</svg>
